<svg id="visual" viewBox="0 0 960 540" width="960" height="540" xmlns="http://www.w3.org/2000/svg" xmlns:xlink="http://www.w3.org/1999/xlink" version="1.1"><rect x="0" y="0" width="960" height="540" fill="#1d1b23"></rect><path d="M0 350L137 315L274 347L411 363L549 348L686 377L823 369L960 322L960 541L823 541L686 541L549 541L411 541L274 541L137 541L0 541Z" fill="#f7d200"></path><path d="M0 350L137 372L274 343L411 365L549 386L686 357L823 359L960 399L960 541L823 541L686 541L549 541L411 541L274 541L137 541L0 541Z" fill="#fbdb53"></path><path d="M0 419L137 427L274 398L411 419L549 428L686 412L823 393L960 424L960 541L823 541L686 541L549 541L411 541L274 541L137 541L0 541Z" fill="#fee482"></path><path d="M0 433L137 413L274 437L411 444L549 434L686 442L823 447L960 455L960 541L823 541L686 541L549 541L411 541L274 541L137 541L0 541Z" fill="#ffecac"></path><path d="M0 466L137 451L274 460L411 470L549 456L686 474L823 481L960 444L960 541L823 541L686 541L549 541L411 541L274 541L137 541L0 541Z" fill="#fff6d5"></path><path d="M0 503L137 498L274 492L411 497L549 483L686 495L823 500L960 480L960 541L823 541L686 541L549 541L411 541L274 541L137 541L0 541Z" fill="#ffffff"></path></svg>